<?xml version="1.0" encoding="UTF-8" standalone="no"?>
<svg width="34px" height="31px" viewBox="0 0 34 31" version="1.1" xmlns="http://www.w3.org/2000/svg" xmlns:xlink="http://www.w3.org/1999/xlink" xmlns:sketch="http://www.bohemiancoding.com/sketch/ns">
    <!-- Generator: Sketch Beta 3.0.4 (8156) - http://www.bohemiancoding.com/sketch -->
    <title>explosion</title>
    <desc>Created with Sketch Beta.</desc>
    <defs></defs>
    <g id="Page-1" stroke="none" stroke-width="1" fill="none" fill-rule="evenodd" sketch:type="MSPage">
        <g id="explosion" sketch:type="MSLayerGroup" transform="translate(0.000000, 1.000000)">
            <path d="M19.6778757,8.69237485 C20.5989759,5.72693411 22.4411765,-0.203947368 22.4411765,-0.203947368 L22.8631045,11.4333625 L28.7936648,7.98166973 L25.9162173,15.0272078 L35.0722569,17.8506517 L25.1921133,19.0859084 L27.7668886,23.870894 L21.9831285,21.1103568 L16.126793,30.8518916 L17.1527444,20.9101995 L11.5900092,24.0334708 L13.9181932,17.5230472 L2.4248977,16.9421825 L13.9355124,14.1816452 L0.151969848,5.2570791 L16.4929686,11.0763472 L14.9622886,3.50223033 L19.1470591,10.4013156 C19.1470591,10.4013156 19.5009367,9.26202183 19.6778757,8.69237485 Z" id="Line" fill="#F8E81C" sketch:type="MSShapeGroup"></path>
            <path d="M20.6321599,12.7065868 C21.1187789,11.3816027 22.0920169,8.73163435 22.0920169,8.73163435 L22.3149223,13.9312834 L25.4480485,12.3890377 L23.9278875,15.5370441 L28.7650405,16.7985829 L23.545342,17.3505061 L24.9056007,19.4884784 L21.8500293,18.2550468 L18.7561161,22.6076475 L19.2981282,18.1656148 L16.3593247,19.5611191 L17.5893088,16.6522064 L11.517379,16.3926711 L17.5984585,15.1592395 L10.316587,11.1716675 L18.9495674,13.771766 L18.1409063,10.3875861 L20.3517285,13.4701561 C20.3517285,13.4701561 20.5386827,12.9611099 20.6321599,12.7065868 Z" id="Line-2" fill="#FE001F" sketch:type="MSShapeGroup" transform="translate(19.481584, 15.748292) rotate(4.000000) translate(-19.481584, -15.748292) "></path>
            <path d="M21.0711097,14.649804 C21.286883,14.0622883 21.7184298,12.887257 21.7184298,12.887257 L21.817269,15.1928509 L23.2065391,14.5089985 L22.5324794,15.9048666 L24.6773377,16.4642498 L22.3628536,16.7089799 L22.9660105,17.6569854 L21.6111292,17.1100654 L20.2392468,19.0400667 L20.4795822,17.0704101 L19.1764774,17.6891953 L19.7218688,16.3993445 L17.029494,16.2842631 L19.7259259,15.7373431 L16.4970467,13.9692003 L20.3250257,15.1221187 L19.9664545,13.6215281 L20.9467626,14.9883809 C20.9467626,14.9883809 21.0296606,14.762663 21.0711097,14.649804 Z" id="Line-3" fill="#F6A623" sketch:type="MSShapeGroup" transform="translate(20.560929, 15.998537) rotate(4.000000) translate(-20.560929, -15.998537) "></path>
        </g>
    </g>
</svg>