<?xml version="1.0" encoding="UTF-8" standalone="no"?>
<svg width="66px" height="86px" viewBox="0 0 66 86" version="1.1" xmlns="http://www.w3.org/2000/svg" xmlns:xlink="http://www.w3.org/1999/xlink" xmlns:sketch="http://www.bohemiancoding.com/sketch/ns">
    <!-- Generator: Sketch Beta 3.0.4 (8156) - http://www.bohemiancoding.com/sketch -->
    <title>plane</title>
    <desc>Created with Sketch Beta.</desc>
    <defs></defs>
    <g id="Page-1" stroke="none" stroke-width="1" fill="none" fill-rule="evenodd" sketch:type="MSPage">
        <g id="plane" sketch:type="MSLayerGroup" transform="translate(0.000000, 1.000000)">
            <g class="rocket" id="rocket-3" transform="translate(50.250000, 9.179775)" sketch:type="MSShapeGroup">
                <g id="exhaust" transform="translate(0.000000, 19.691467)">
                    <path d="M4.40098409,16.2194899 C4.51969287,8.76380244 6.22142857,7.69512928 6.22142857,4.95729233 C6.22142857,2.21945537 5.2572418,0 4.06785714,0 C2.87847249,0 1.91428571,2.21945537 1.91428571,4.95729233 C1.91428571,7.69512928 4.28227532,23.6751773 4.40098409,16.2194899 Z" id="Oval-1" fill="#FE001F"></path>
                    <path d="M4.25292767,13.9764756 C4.4379982,10.2881464 5.26428571,7.22802351 5.26428571,5.06056925 C5.26428571,2.893115 4.7286264,1.13604616 4.06785714,1.13604616 C3.40708789,1.13604616 2.87142857,2.893115 2.87142857,5.06056925 C2.87142857,7.22802351 4.06785714,17.6648049 4.25292767,13.9764756 Z" id="Oval-2" fill="#F6A623"></path>
                    <path class="smoke" d="M1.60273888,16.0800273 C1.50822164,16.5665247 1.47858101,17.1002283 1.5271439,17.6553047 C1.59097376,18.3848833 1.78144244,19.0546392 2.05856227,19.6120588 C1.80312743,20.2261395 1.68467921,20.9956155 1.75655026,21.8171054 C1.81212314,22.4523063 1.97435619,23.0371221 2.2106689,23.5287667 L2.2106689,23.5287667 C1.99459559,24.1171376 1.89875429,24.8311639 1.96510151,25.589516 C2.01628208,26.1745126 2.15792894,26.7167739 2.36459228,27.1828782 C2.17710252,27.7024419 2.09449056,28.3303818 2.15279762,28.9968346 C2.22252078,29.7937739 2.48112267,30.5014889 2.84716938,31.0130373 L2.84716938,31.0130373 C2.49537713,31.5305299 2.30785281,32.3087976 2.38220399,33.1586354 C2.50979845,34.6170468 3.36030356,35.7339627 4.28186032,35.6533369 C5.20341708,35.5727112 5.84705069,34.325075 5.71945623,32.8666637 C5.66852707,32.2845407 5.50242402,31.7568247 5.26260027,31.3379535 C5.77414354,30.762494 6.06324374,29.7655075 5.96680018,28.6631527 C5.9386559,28.341462 5.87973581,28.0343096 5.79539597,27.7487291 L5.79539597,27.7487291 C6.15794308,27.0929238 6.34125373,26.1902428 6.25585438,25.2141237 C6.20028151,24.5789228 6.03804846,23.9941071 5.80173575,23.5024625 C6.01780906,22.9140916 6.11365035,22.2000653 6.04730314,21.4417132 C6.0053444,20.9621226 5.90258317,20.5112545 5.7530423,20.1075242 L5.7530423,20.1075242 C6.17569076,19.3748858 6.39186149,18.3493678 6.2946471,17.2382022 C6.25826481,16.8223507 6.18073921,16.4259348 6.06947531,16.0586792 C6.75043295,15.0882799 7.17857143,13.6821781 7.17857143,12.1178257 C7.17857143,11.1060764 6.99948573,10.1605216 6.68874341,9.35622027 C7.57361014,8.38371825 8.13571429,6.92818487 8.13571429,5.30154874 C8.13571429,2.37358422 6.31447261,0 4.06785714,0 C1.82124168,0 0,2.37358422 0,5.30154874 C0,6.72578 0.430920335,8.01884045 1.13210816,8.97135477 C0.721375343,9.85143634 0.478571429,10.9397578 0.478571429,12.1178257 C0.478571429,13.6936877 0.913033104,15.108962 1.60273888,16.0800273 Z" id="Oval-3" stroke="#979797" stroke-width="0.5"></path>
                    <rect id="Rectangle-1" fill="#FFFFFF" x="3.35" y="34.8387489" width="1.43571429" height="1.51472821"></rect>
                </g>
                <g class="rocket-body">
                    <path d="M5.56958128,4.94950333 C5.56958128,1.2479391 4.0282609,-0.0183424119 4.0282609,-0.0183424119" id="Path-1" stroke="#979797" stroke-width="0.5" fill="#D8D8D8"></path>
                    <path d="M2.5125,4.94950333 C2.5125,1.2479391 4.05382038,-0.0183424119 4.05382038,-0.0183424119" id="Path-2" stroke="#979797" stroke-width="0.5" fill="#D8D8D8"></path>
                    <path d="M2.4856835,4.94721053 L2.4856835,17.7764175 L5.59639778,17.7764175 L5.59639778,4.94721053 L2.4856835,4.94721053 L2.4856835,4.94721053 Z" id="Rectangle-1" stroke="#979797" stroke-width="0.5" fill="#D8D8D8"></path>
                    <path d="M2.4972514,12.8034443 L0.972391457,17.6585608 L2.48137737,17.6656728" id="Line" stroke="#979797" stroke-width="0.5" stroke-linecap="square" fill="#D8D8D8"></path>
                    <path d="M7.11807903,12.8034443 L5.56692839,17.6585608 L7.10193131,17.6656728" id="Line-2" stroke="#979797" stroke-width="0.5" stroke-linecap="square" fill="#D8D8D8" transform="translate(6.342504, 15.231003) scale(-1, 1) translate(-6.342504, -15.231003) "></path>
                </g>
            </g>
            <g class="rocket" id="rocket-4" transform="translate(57.428571, 10.146067)" sketch:type="MSShapeGroup">
                <g id="exhaust" transform="translate(0.000000, 19.691467)">
                    <path d="M4.40098409,16.2194899 C4.51969287,8.76380244 6.22142857,7.69512928 6.22142857,4.95729233 C6.22142857,2.21945537 5.2572418,0 4.06785714,0 C2.87847249,0 1.91428571,2.21945537 1.91428571,4.95729233 C1.91428571,7.69512928 4.28227532,23.6751773 4.40098409,16.2194899 Z" id="Oval-1" fill="#FE001F"></path>
                    <path d="M4.25292767,13.9764756 C4.4379982,10.2881464 5.26428571,7.22802351 5.26428571,5.06056925 C5.26428571,2.893115 4.7286264,1.13604616 4.06785714,1.13604616 C3.40708789,1.13604616 2.87142857,2.893115 2.87142857,5.06056925 C2.87142857,7.22802351 4.06785714,17.6648049 4.25292767,13.9764756 Z" id="Oval-2" fill="#F6A623"></path>
                    <path class="smoke" d="M1.60273888,16.0800273 C1.50822164,16.5665247 1.47858101,17.1002283 1.5271439,17.6553047 C1.59097376,18.3848833 1.78144244,19.0546392 2.05856227,19.6120588 C1.80312743,20.2261395 1.68467921,20.9956155 1.75655026,21.8171054 C1.81212314,22.4523063 1.97435619,23.0371221 2.2106689,23.5287667 L2.2106689,23.5287667 C1.99459559,24.1171376 1.89875429,24.8311639 1.96510151,25.589516 C2.01628208,26.1745126 2.15792894,26.7167739 2.36459228,27.1828782 C2.17710252,27.7024419 2.09449056,28.3303818 2.15279762,28.9968346 C2.22252078,29.7937739 2.48112267,30.5014889 2.84716938,31.0130373 L2.84716938,31.0130373 C2.49537713,31.5305299 2.30785281,32.3087976 2.38220399,33.1586354 C2.50979845,34.6170468 3.36030356,35.7339627 4.28186032,35.6533369 C5.20341708,35.5727112 5.84705069,34.325075 5.71945623,32.8666637 C5.66852707,32.2845407 5.50242402,31.7568247 5.26260027,31.3379535 C5.77414354,30.762494 6.06324374,29.7655075 5.96680018,28.6631527 C5.9386559,28.341462 5.87973581,28.0343096 5.79539597,27.7487291 L5.79539597,27.7487291 C6.15794308,27.0929238 6.34125373,26.1902428 6.25585438,25.2141237 C6.20028151,24.5789228 6.03804846,23.9941071 5.80173575,23.5024625 C6.01780906,22.9140916 6.11365035,22.2000653 6.04730314,21.4417132 C6.0053444,20.9621226 5.90258317,20.5112545 5.7530423,20.1075242 L5.7530423,20.1075242 C6.17569076,19.3748858 6.39186149,18.3493678 6.2946471,17.2382022 C6.25826481,16.8223507 6.18073921,16.4259348 6.06947531,16.0586792 C6.75043295,15.0882799 7.17857143,13.6821781 7.17857143,12.1178257 C7.17857143,11.1060764 6.99948573,10.1605216 6.68874341,9.35622027 C7.57361014,8.38371825 8.13571429,6.92818487 8.13571429,5.30154874 C8.13571429,2.37358422 6.31447261,0 4.06785714,0 C1.82124168,0 0,2.37358422 0,5.30154874 C0,6.72578 0.430920335,8.01884045 1.13210816,8.97135477 C0.721375343,9.85143634 0.478571429,10.9397578 0.478571429,12.1178257 C0.478571429,13.6936877 0.913033104,15.108962 1.60273888,16.0800273 Z" id="Oval-3" stroke="#979797" stroke-width="0.5"></path>
                    <rect id="Rectangle-1" fill="#FFFFFF" x="3.35" y="34.8387489" width="1.43571429" height="1.51472821"></rect>
                </g>
                <g class="rocket-body">
                    <path d="M5.56958128,4.94950333 C5.56958128,1.2479391 4.0282609,-0.0183424119 4.0282609,-0.0183424119" id="Path-1" stroke="#979797" stroke-width="0.5" fill="#D8D8D8"></path>
                    <path d="M2.5125,4.94950333 C2.5125,1.2479391 4.05382038,-0.0183424119 4.05382038,-0.0183424119" id="Path-2" stroke="#979797" stroke-width="0.5" fill="#D8D8D8"></path>
                    <path d="M2.4856835,4.94721053 L2.4856835,17.7764175 L5.59639778,17.7764175 L5.59639778,4.94721053 L2.4856835,4.94721053 L2.4856835,4.94721053 Z" id="Rectangle-1" stroke="#979797" stroke-width="0.5" fill="#D8D8D8"></path>
                    <path d="M2.4972514,12.8034443 L0.972391457,17.6585608 L2.48137737,17.6656728" id="Line" stroke="#979797" stroke-width="0.5" stroke-linecap="square" fill="#D8D8D8"></path>
                    <path d="M7.11807903,12.8034443 L5.56692839,17.6585608 L7.10193131,17.6656728" id="Line-2" stroke="#979797" stroke-width="0.5" stroke-linecap="square" fill="#D8D8D8" transform="translate(6.342504, 15.231003) scale(-1, 1) translate(-6.342504, -15.231003) "></path>
                </g>
            </g>
            <g class="rocket" id="rocket-2" transform="translate(9.092857, 9.179775)" sketch:type="MSShapeGroup">
                <g id="exhaust" transform="translate(0.000000, 19.691467)">
                    <path d="M4.40098409,16.2194899 C4.51969287,8.76380244 6.22142857,7.69512928 6.22142857,4.95729233 C6.22142857,2.21945537 5.2572418,0 4.06785714,0 C2.87847249,0 1.91428571,2.21945537 1.91428571,4.95729233 C1.91428571,7.69512928 4.28227532,23.6751773 4.40098409,16.2194899 Z" id="Oval-1" fill="#FE001F"></path>
                    <path d="M4.25292767,13.9764756 C4.4379982,10.2881464 5.26428571,7.22802351 5.26428571,5.06056925 C5.26428571,2.893115 4.7286264,1.13604616 4.06785714,1.13604616 C3.40708789,1.13604616 2.87142857,2.893115 2.87142857,5.06056925 C2.87142857,7.22802351 4.06785714,17.6648049 4.25292767,13.9764756 Z" id="Oval-2" fill="#F6A623"></path>
                    <path class="smoke" d="M1.60273888,16.0800273 C1.50822164,16.5665247 1.47858101,17.1002283 1.5271439,17.6553047 C1.59097376,18.3848833 1.78144244,19.0546392 2.05856227,19.6120588 C1.80312743,20.2261395 1.68467921,20.9956155 1.75655026,21.8171054 C1.81212314,22.4523063 1.97435619,23.0371221 2.2106689,23.5287667 L2.2106689,23.5287667 C1.99459559,24.1171376 1.89875429,24.8311639 1.96510151,25.589516 C2.01628208,26.1745126 2.15792894,26.7167739 2.36459228,27.1828782 C2.17710252,27.7024419 2.09449056,28.3303818 2.15279762,28.9968346 C2.22252078,29.7937739 2.48112267,30.5014889 2.84716938,31.0130373 L2.84716938,31.0130373 C2.49537713,31.5305299 2.30785281,32.3087976 2.38220399,33.1586354 C2.50979845,34.6170468 3.36030356,35.7339627 4.28186032,35.6533369 C5.20341708,35.5727112 5.84705069,34.325075 5.71945623,32.8666637 C5.66852707,32.2845407 5.50242402,31.7568247 5.26260027,31.3379535 C5.77414354,30.762494 6.06324374,29.7655075 5.96680018,28.6631527 C5.9386559,28.341462 5.87973581,28.0343096 5.79539597,27.7487291 L5.79539597,27.7487291 C6.15794308,27.0929238 6.34125373,26.1902428 6.25585438,25.2141237 C6.20028151,24.5789228 6.03804846,23.9941071 5.80173575,23.5024625 C6.01780906,22.9140916 6.11365035,22.2000653 6.04730314,21.4417132 C6.0053444,20.9621226 5.90258317,20.5112545 5.7530423,20.1075242 L5.7530423,20.1075242 C6.17569076,19.3748858 6.39186149,18.3493678 6.2946471,17.2382022 C6.25826481,16.8223507 6.18073921,16.4259348 6.06947531,16.0586792 C6.75043295,15.0882799 7.17857143,13.6821781 7.17857143,12.1178257 C7.17857143,11.1060764 6.99948573,10.1605216 6.68874341,9.35622027 C7.57361014,8.38371825 8.13571429,6.92818487 8.13571429,5.30154874 C8.13571429,2.37358422 6.31447261,0 4.06785714,0 C1.82124168,0 0,2.37358422 0,5.30154874 C0,6.72578 0.430920335,8.01884045 1.13210816,8.97135477 C0.721375343,9.85143634 0.478571429,10.9397578 0.478571429,12.1178257 C0.478571429,13.6936877 0.913033104,15.108962 1.60273888,16.0800273 Z" id="Oval-3" stroke="#979797" stroke-width="0.5"></path>
                    <rect id="Rectangle-1" fill="#FFFFFF" x="3.35" y="34.8387489" width="1.43571429" height="1.51472821"></rect>
                </g>
                <g class="rocket-body">
                    <path d="M5.56958128,4.94950333 C5.56958128,1.2479391 4.0282609,-0.0183424119 4.0282609,-0.0183424119" id="Path-1" stroke="#979797" stroke-width="0.5" fill="#D8D8D8"></path>
                    <path d="M2.5125,4.94950333 C2.5125,1.2479391 4.05382038,-0.0183424119 4.05382038,-0.0183424119" id="Path-2" stroke="#979797" stroke-width="0.5" fill="#D8D8D8"></path>
                    <path d="M2.4856835,4.94721053 L2.4856835,17.7764175 L5.59639778,17.7764175 L5.59639778,4.94721053 L2.4856835,4.94721053 L2.4856835,4.94721053 Z" id="Rectangle-1" stroke="#979797" stroke-width="0.5" fill="#D8D8D8"></path>
                    <path d="M2.4972514,12.8034443 L0.972391457,17.6585608 L2.48137737,17.6656728" id="Line" stroke="#979797" stroke-width="0.5" stroke-linecap="square" fill="#D8D8D8"></path>
                    <path d="M7.11807903,12.8034443 L5.56692839,17.6585608 L7.10193131,17.6656728" id="Line-2" stroke="#979797" stroke-width="0.5" stroke-linecap="square" fill="#D8D8D8" transform="translate(6.342504, 15.231003) scale(-1, 1) translate(-6.342504, -15.231003) "></path>
                </g>
            </g>
            <g class="rocket" id="rocket-1" transform="translate(1.914286, 10.146067)" sketch:type="MSShapeGroup">
                <g id="exhaust" transform="translate(0.000000, 19.691467)">
                    <path d="M4.40098409,16.2194899 C4.51969287,8.76380244 6.22142857,7.69512928 6.22142857,4.95729233 C6.22142857,2.21945537 5.2572418,3.55271368e-15 4.06785714,3.55271368e-15 C2.87847249,3.55271368e-15 1.91428571,2.21945537 1.91428571,4.95729233 C1.91428571,7.69512928 4.28227532,23.6751773 4.40098409,16.2194899 Z" id="Oval-1" fill="#FE001F"></path>
                    <path d="M4.25292767,13.9764756 C4.4379982,10.2881464 5.26428571,7.22802351 5.26428571,5.06056925 C5.26428571,2.893115 4.7286264,1.13604616 4.06785714,1.13604616 C3.40708789,1.13604616 2.87142857,2.893115 2.87142857,5.06056925 C2.87142857,7.22802351 4.06785714,17.6648049 4.25292767,13.9764756 Z" id="Oval-2" fill="#F6A623"></path>
                    <path class="smoke" d="M1.60273888,16.0800273 C1.50822164,16.5665247 1.47858101,17.1002283 1.5271439,17.6553047 C1.59097376,18.3848833 1.78144244,19.0546392 2.05856227,19.6120588 C1.80312743,20.2261395 1.68467921,20.9956155 1.75655026,21.8171054 C1.81212314,22.4523063 1.97435619,23.0371221 2.2106689,23.5287667 L2.2106689,23.5287667 C1.99459559,24.1171376 1.89875429,24.8311639 1.96510151,25.589516 C2.01628208,26.1745126 2.15792894,26.7167739 2.36459228,27.1828782 C2.17710252,27.7024419 2.09449056,28.3303818 2.15279762,28.9968346 C2.22252078,29.7937739 2.48112267,30.5014889 2.84716938,31.0130373 L2.84716938,31.0130373 C2.49537713,31.5305299 2.30785281,32.3087976 2.38220399,33.1586354 C2.50979845,34.6170468 3.36030356,35.7339627 4.28186032,35.6533369 C5.20341708,35.5727112 5.84705069,34.325075 5.71945623,32.8666637 C5.66852707,32.2845407 5.50242402,31.7568247 5.26260027,31.3379535 C5.77414354,30.762494 6.06324374,29.7655075 5.96680018,28.6631527 C5.9386559,28.341462 5.87973581,28.0343096 5.79539597,27.7487291 L5.79539597,27.7487291 C6.15794308,27.0929238 6.34125373,26.1902428 6.25585438,25.2141237 C6.20028151,24.5789228 6.03804846,23.9941071 5.80173575,23.5024625 C6.01780906,22.9140916 6.11365035,22.2000653 6.04730314,21.4417132 C6.0053444,20.9621226 5.90258317,20.5112545 5.7530423,20.1075242 L5.7530423,20.1075242 C6.17569076,19.3748858 6.39186149,18.3493678 6.2946471,17.2382022 C6.25826481,16.8223507 6.18073921,16.4259348 6.06947531,16.0586792 C6.75043295,15.0882799 7.17857143,13.6821781 7.17857143,12.1178257 C7.17857143,11.1060764 6.99948573,10.1605216 6.68874341,9.35622027 C7.57361014,8.38371825 8.13571429,6.92818487 8.13571429,5.30154874 C8.13571429,2.37358422 6.31447261,3.43295929e-15 4.06785714,3.43295929e-15 C1.82124168,3.43295929e-15 0,2.37358422 0,5.30154874 C0,6.72578 0.430920335,8.01884045 1.13210816,8.97135477 C0.721375343,9.85143634 0.478571429,10.9397578 0.478571429,12.1178257 C0.478571429,13.6936877 0.913033104,15.108962 1.60273888,16.0800273 Z" id="Oval-3" stroke="#979797" stroke-width="0.5"></path>
                    <rect id="Rectangle-1" opacity="0" fill="#FFFFFF" x="3.35" y="34.8387489" width="1.43571429" height="1.51472821"></rect>
                </g>
                <g class="rocket-body">
                    <path d="M5.56958128,4.94950333 C5.56958128,1.2479391 4.0282609,-0.0183424119 4.0282609,-0.0183424119" id="Path-1" stroke="#979797" stroke-width="0.5" fill="#D8D8D8"></path>
                    <path d="M2.5125,4.94950333 C2.5125,1.2479391 4.05382038,-0.0183424119 4.05382038,-0.0183424119" id="Path-2" stroke="#979797" stroke-width="0.5" fill="#D8D8D8"></path>
                    <path d="M2.4856835,4.94721053 L2.4856835,17.7764175 L5.59639778,17.7764175 L5.59639778,4.94721053 L2.4856835,4.94721053 L2.4856835,4.94721053 Z" id="Rectangle-1" stroke="#979797" stroke-width="0.5" fill="#D8D8D8"></path>
                    <path d="M2.4972514,12.8034443 L0.972391457,17.6585608 L2.48137737,17.6656728" id="Line" stroke="#979797" stroke-width="0.5" stroke-linecap="square" fill="#D8D8D8"></path>
                    <path d="M7.11807903,12.8034443 L5.56692839,17.6585608 L7.10193131,17.6656728" id="Line-2" stroke="#979797" stroke-width="0.5" stroke-linecap="square" fill="#D8D8D8" transform="translate(6.342504, 15.231003) scale(-1, 1) translate(-6.342504, -15.231003) "></path>
                </g>
            </g>
            <g id="planebody" sketch:type="MSShapeGroup">
                <path d="M33.2607138,33.0553597 C43.6150586,33.0553597 46.2161687,27.4753242 46.2161687,16.6685389 C46.2161687,5.86175356 43.9651757,0.23547943 33.2607138,0.23547943 C22.5562519,0.23547943 20.3866421,5.86175356 20.3866421,16.6685389 C20.3866421,27.4753242 22.906369,33.0553597 33.2607138,33.0553597 Z" id="Oval-10" stroke="#979797" stroke-width="0.5" fill="#D8D8D8"></path>
                <path d="M33.5000001,14.4042179 C40.6363081,14.4042179 45.1559512,15.5359538 45.1559512,9.42134831 C45.1559512,3.30674285 40.6363079,0 33.5,0 C26.3636921,0 21.2453255,4.21808132 21.2453255,9.42134831 C21.2453255,14.6246153 26.3636922,14.4042179 33.5000001,14.4042179 Z" id="Oval-11" stroke="#979797" stroke-width="0.5" fill="#FFFFFF"></path>
                <path d="M1.9361537,19.7748973 L0.150462885,25.8311115 L21.8429872,22.8025973 L21.058645,19.0842697 L21.8429872,14.494382 L1.9361537,19.7748973 Z" id="Rectangle-2" stroke="#979797" stroke-width="0.5" fill="#D8D8D8"></path>
                <path d="M46.921868,19.7748973 L45.1361772,25.8311115 L66.8287015,22.8025973 L66.0443593,19.0842697 L66.8287015,14.494382 L46.921868,19.7748973 Z" id="Rectangle-3" stroke="#979797" stroke-width="0.5" fill="#D8D8D8" transform="translate(55.992857, 20.050562) scale(-1, 1) translate(-55.992857, -20.050562) "></path>
                <ellipse id="Oval-48" stroke="#979797" stroke-width="0.5" fill="#50E3C2" cx="33.2607143" cy="21.5" rx="2.63214286" ry="2.65730337"></ellipse>
                <ellipse id="Oval-49" stroke="#979797" stroke-width="0.5" fill="#E2233B" cx="33.2607143" cy="31.1629213" rx="7.41785714" ry="1.69101124"></ellipse>
                <g id="exhaust-2" transform="translate(23.450000, 29.955056)">
                    <path d="M10.6141381,25.0050469 C10.9004357,13.5108621 15.0046218,11.8633243 15.0046218,7.64249234 C15.0046218,3.42166037 12.6792302,0 9.81071429,0 C6.94219835,0 4.61680672,3.42166037 4.61680672,7.64249234 C4.61680672,11.8633243 10.3278405,36.4992317 10.6141381,25.0050469 Z" id="Oval-1" fill="#FE001F"></path>
                    <path d="M10.2570609,21.5470666 C10.7034074,15.8608923 12.6962185,11.1432029 12.6962185,7.80171093 C12.6962185,4.46021895 11.4043343,1.75140449 9.81071429,1.75140449 C8.21709432,1.75140449 6.92521008,4.46021895 6.92521008,7.80171093 C6.92521008,11.1432029 9.81071429,27.2332409 10.2570609,21.5470666 Z" id="Oval-2" fill="#F6A623"></path>
                    <path class="smoke" d="M4.00033543,24.9087928 C3.72449841,25.6818581 3.60671213,26.5268029 3.68311176,27.4000547 C3.78983676,28.6199271 4.26015022,29.7195982 4.97641879,30.5991993 C4.41644733,31.5244097 4.1344806,32.633235 4.23638593,33.7980182 C4.3303497,34.8720291 4.73746615,35.8425126 5.35862282,36.6253239 L5.35862282,36.6253239 C4.8794463,37.5061526 4.6450682,38.5360295 4.73936246,39.6138178 C4.8256561,40.6001586 5.17606459,41.4991839 5.71381939,42.2457184 C5.30725022,43.0167343 5.11012731,43.9123399 5.19204133,44.8486214 C5.30591936,46.1502532 5.9372465,47.280818 6.86273145,48.050745 L6.86273145,48.050745 C6.07867077,48.8714619 5.63792198,50.0190714 5.7453155,51.246585 C5.94202363,53.4949692 7.90324259,55.1600115 10.1258207,54.9655611 C12.3483987,54.7711107 13.9906908,52.790802 13.7939827,50.5424178 C13.7100834,49.5834453 13.3051911,48.730592 12.6959357,48.0828749 C13.8488287,47.1399109 14.5312012,45.6518744 14.3905181,44.043859 C14.3409235,43.4769906 14.1931867,42.9425677 13.9657517,42.4562489 L13.9657517,42.4562489 C14.7746474,41.4379874 15.2106143,40.1139622 15.0876488,38.7084601 C14.993685,37.6344493 14.5865686,36.6639657 13.9654119,35.8811544 C14.4445884,35.0003257 14.6789665,33.9704488 14.5846723,32.8926605 C14.512764,32.0707452 14.2574585,31.3094605 13.8631761,30.6465187 L13.8631761,30.6465187 C14.8076242,29.5039205 15.321415,27.9966785 15.1812077,26.3941017 C15.1272244,25.7770696 14.9802167,25.190791 14.7554079,24.6481904 C16.3294557,23.1568389 17.3130252,21.0354396 17.3130252,18.6816479 C17.3130252,17.1218677 16.8811126,15.6641374 16.1316753,14.4241729 C18.2657656,12.924899 19.6214286,10.6809517 19.6214286,8.17322097 C19.6214286,3.65927567 15.2290222,0 9.81071429,0 C4.3924064,0 0,3.65927567 0,8.17322097 C0,10.3689108 1.03927846,12.362379 2.7303785,13.8308386 C1.73978759,15.187631 1.15420168,16.86546 1.15420168,18.6816479 C1.15420168,21.1761398 2.2588734,23.4096261 4.00033543,24.9087928 Z" id="Oval-3" stroke="#979797" stroke-width="0.5"></path>
                    <rect class="rect" id="Rectangle-1" fill="#FFFFFF" x="8.07941176" y="53.7097378" width="3.46260504" height="2.33520599"></rect>
                </g>
            </g>
        </g>
    </g>
</svg>